<?xml version="1.0" encoding="utf-8"?>
<!-- Generator: Adobe Illustrator 21.1.0, SVG Export Plug-In . SVG Version: 6.00 Build 0)  -->
<svg version="1.1" id="Capa_1" xmlns="http://www.w3.org/2000/svg" xmlns:xlink="http://www.w3.org/1999/xlink" x="0px" y="0px"
	 viewBox="0 0 400 400" style="enable-background:new 0 0 400 400;" xml:space="preserve">
<style type="text/css">
	.st0{fill:#2BBBAD;}
</style>
<g>
	<g>
		<path class="st0" d="M200,0C89.7,0,0,89.7,0,200s89.7,200,200,200s200-89.7,200-200S310.3,0,200,0z M200,373.8
			c-95.8,0-173.8-78-173.8-173.8c0-95.8,77.9-173.8,173.8-173.8s173.8,78,173.8,173.8C373.8,295.8,295.8,373.8,200,373.8z"/>
		<path class="st0" d="M272.4,134.5L169.3,237.7L127.6,196c-5.1-5.1-13.4-5.1-18.5,0c-5.1,5.1-5.1,13.4,0,18.5l51,51
			c2.6,2.6,5.9,3.8,9.3,3.8s6.7-1.3,9.3-3.8c0,0,0,0,0,0L291,153.1c5.1-5.1,5.1-13.4,0-18.5C285.8,129.4,277.5,129.4,272.4,134.5z"
			/>
	</g>
</g>
</svg>
